<svg width="181" height="181" viewBox="0 0 181 181" fill="none" xmlns="http://www.w3.org/2000/svg">
<rect x="0.265625" y="0.996582" width="180" height="180" rx="16" fill="#FFF200"/>
<path d="M41.1545 118.65C37.5159 118.662 33.9108 117.953 30.5464 116.563C27.1819 115.173 24.1244 113.13 21.5495 110.551C18.9763 107.991 16.934 104.945 15.5402 101.588C14.1465 98.2323 13.4289 94.6327 13.4289 90.997C13.4289 87.3614 14.1465 83.7617 15.5402 80.4056C16.934 77.0495 18.9763 74.0033 21.5495 71.4427C26.7628 66.2541 33.8095 63.3425 41.1538 63.3425C48.4982 63.3425 55.5449 66.2541 60.7582 71.4427C63.3312 74.0034 65.3734 77.0496 66.7671 80.4057C68.1607 83.7618 68.8783 87.3614 68.8783 90.997C68.8783 94.6326 68.1607 98.2322 66.7671 101.588C65.3734 104.944 63.3312 107.991 60.7582 110.551C58.1834 113.13 55.1262 115.173 51.762 116.563C48.3977 117.953 44.7929 118.662 41.1545 118.65ZM51.3333 85.1089V102.842H56.6172V85.1089H51.3333ZM32.5795 97.25H42.0246L43.4908 101.595C43.6429 101.949 43.884 102.258 44.1904 102.491C44.5442 102.739 44.9695 102.862 45.4003 102.842H49.8671L40.2515 77.9268H34.3526L24.7371 102.842H29.238C29.6699 102.857 30.0938 102.723 30.4389 102.462C30.7347 102.238 30.9653 101.938 31.107 101.595L32.5732 97.2525L32.5795 97.25ZM53.9222 77.1402C53.5069 77.1374 53.0954 77.2189 52.7124 77.3796C52.341 77.5369 52.0026 77.7629 51.7147 78.0459C51.4262 78.3297 51.1947 78.6664 51.0327 79.0377C50.8652 79.4201 50.7791 79.8334 50.7801 80.2512C50.7796 80.6607 50.8657 81.0656 51.0327 81.4393C51.195 81.8052 51.4266 82.1361 51.7147 82.4134C52.0055 82.6927 52.3433 82.9182 52.7124 83.0797C53.0936 83.2477 53.5057 83.334 53.9222 83.333C54.3525 83.3335 54.7785 83.2474 55.175 83.0797C55.5559 82.9214 55.9054 82.6957 56.2067 82.4134C56.5002 82.1368 56.7377 81.8061 56.9064 81.4393C57.0758 81.0664 57.162 80.6609 57.1589 80.2512C57.1625 79.8332 57.0764 79.4193 56.9064 79.0377C56.5646 78.2813 55.9441 77.6871 55.175 77.3796C54.7775 77.22 54.3529 77.1391 53.9247 77.1415L53.9222 77.1402ZM40.7112 93.3182H33.9093L36.1939 86.5301C36.3631 86.0994 36.5475 85.5813 36.7395 84.9911C36.9314 84.4008 37.1183 83.751 37.285 83.0581C37.4719 83.7193 37.6639 84.3615 37.8647 84.9581C38.0655 85.5547 38.2435 86.0601 38.4102 86.4896L40.7049 93.3157L40.7112 93.3182Z" fill="#000923"/>
<path d="M88.3305 78.2331V82.1522H80.6396V103.876H75.8836V82.1522H68.1573V78.2331H88.3305Z" fill="#000923"/>
<path d="M86.8506 103.876V85.6811H89.4143C89.8622 85.6811 90.1745 85.7639 90.3513 85.9294C90.5281 86.0949 90.646 86.3787 90.7049 86.7806L90.9701 88.9796C91.6184 87.8565 92.3787 86.9698 93.2509 86.3196C94.1231 85.6693 95.1014 85.3442 96.1858 85.3442C97.0816 85.3442 97.8242 85.5511 98.4136 85.9649L97.8478 89.2456C97.8124 89.4584 97.7358 89.6121 97.6179 89.7066C97.5001 89.7894 97.3409 89.8308 97.1406 89.8308C96.9638 89.8308 96.7221 89.7894 96.4157 89.7066C96.1092 89.6239 95.7026 89.5825 95.1957 89.5825C94.2882 89.5825 93.5102 89.8367 92.8619 90.3451C92.2137 90.8416 91.6656 91.5746 91.2177 92.544V103.876H86.8506Z" fill="#000923"/>
<path d="M104.52 85.6811V103.876H100.153V85.6811H104.52ZM105.175 80.3788C105.175 80.7572 105.098 81.1118 104.945 81.4429C104.792 81.7739 104.585 82.0635 104.326 82.3118C104.078 82.5601 103.784 82.761 103.442 82.9147C103.1 83.0566 102.735 83.1275 102.346 83.1275C101.969 83.1275 101.609 83.0566 101.267 82.9147C100.937 82.761 100.648 82.5601 100.401 82.3118C100.153 82.0635 99.953 81.7739 99.7998 81.4429C99.6584 81.1118 99.5876 80.7572 99.5876 80.3788C99.5876 79.9887 99.6584 79.6222 99.7998 79.2794C99.953 78.9365 100.153 78.641 100.401 78.3927C100.648 78.1444 100.937 77.9494 101.267 77.8075C101.609 77.6538 101.969 77.577 102.346 77.577C102.735 77.577 103.1 77.6538 103.442 77.8075C103.784 77.9494 104.078 78.1444 104.326 78.3927C104.585 78.641 104.792 78.9365 104.945 79.2794C105.098 79.6222 105.175 79.9887 105.175 80.3788Z" fill="#000923"/>
<path d="M112.706 77.5238V103.876H108.339V77.5238H112.706Z" fill="#000923"/>
<path d="M120.891 77.5238V103.876H116.524V77.5238H120.891Z" fill="#000923"/>
<path d="M129.077 85.6811V103.876H124.71V85.6811H129.077ZM129.731 80.3788C129.731 80.7572 129.654 81.1118 129.501 81.4429C129.348 81.7739 129.142 82.0635 128.882 82.3118C128.635 82.5601 128.34 82.761 127.998 82.9147C127.656 83.0566 127.291 83.1275 126.902 83.1275C126.525 83.1275 126.165 83.0566 125.824 82.9147C125.494 82.761 125.205 82.5601 124.957 82.3118C124.71 82.0635 124.509 81.7739 124.356 81.4429C124.215 81.1118 124.144 80.7572 124.144 80.3788C124.144 79.9887 124.215 79.6222 124.356 79.2794C124.509 78.9365 124.71 78.641 124.957 78.3927C125.205 78.1444 125.494 77.9494 125.824 77.8075C126.165 77.6538 126.525 77.577 126.902 77.577C127.291 77.577 127.656 77.6538 127.998 77.8075C128.34 77.9494 128.635 78.1444 128.882 78.3927C129.142 78.641 129.348 78.9365 129.501 79.2794C129.654 79.6222 129.731 79.9887 129.731 80.3788Z" fill="#000923"/>
<path d="M140.356 85.3974C141.712 85.3974 142.938 85.6161 144.034 86.0536C145.142 86.491 146.085 87.1116 146.863 87.9156C147.641 88.7195 148.242 89.7007 148.666 90.8593C149.09 92.0179 149.302 93.3125 149.302 94.743C149.302 96.1853 149.09 97.4857 148.666 98.6443C148.242 99.8029 147.641 100.79 146.863 101.606C146.085 102.422 145.142 103.048 144.034 103.486C142.938 103.923 141.712 104.142 140.356 104.142C139.001 104.142 137.769 103.923 136.661 103.486C135.553 103.048 134.604 102.422 133.815 101.606C133.037 100.79 132.43 99.8029 131.993 98.6443C131.569 97.4857 131.357 96.1853 131.357 94.743C131.357 93.3125 131.569 92.0179 131.993 90.8593C132.43 89.7007 133.037 88.7195 133.815 87.9156C134.604 87.1116 135.553 86.491 136.661 86.0536C137.769 85.6161 139.001 85.3974 140.356 85.3974ZM140.356 100.772C141.865 100.772 142.979 100.264 143.698 99.2473C144.429 98.2305 144.794 96.7409 144.794 94.7784C144.794 92.8159 144.429 91.3204 143.698 90.2919C142.979 89.2633 141.865 88.749 140.356 88.749C138.824 88.749 137.692 89.2692 136.962 90.3096C136.231 91.3381 135.865 92.8277 135.865 94.7784C135.865 96.7291 136.231 98.2187 136.962 99.2473C137.692 100.264 138.824 100.772 140.356 100.772Z" fill="#000923"/>
<path d="M151.295 103.876V85.6811H153.965C154.531 85.6811 154.902 85.9472 155.079 86.4792L155.38 87.9156C155.745 87.5373 156.128 87.1944 156.529 86.887C156.941 86.5796 157.372 86.3136 157.819 86.089C158.279 85.8644 158.768 85.693 159.287 85.5747C159.805 85.4565 160.371 85.3974 160.984 85.3974C161.974 85.3974 162.852 85.5688 163.619 85.9117C164.385 86.2427 165.021 86.7156 165.528 87.3304C166.047 87.9333 166.436 88.6604 166.695 89.5116C166.966 90.351 167.102 91.279 167.102 92.2957V103.876H162.735V92.2957C162.735 91.1844 162.475 90.3273 161.957 89.7244C161.45 89.1096 160.684 88.8022 159.658 88.8022C158.904 88.8022 158.197 88.9737 157.537 89.3165C156.876 89.6594 156.252 90.1263 155.662 90.7175V103.876H151.295Z" fill="#000923"/>
</svg>
